solid OpenSCAD_Model
  facet normal -0 0 1
    outer loop
      vertex 0 6 10
      vertex 10 4.5 10
      vertex 10 6 10
    endloop
  endfacet
  facet normal 0 0 1
    outer loop
      vertex 0 6 10
      vertex 0 4.5 10
      vertex 10 4.5 10
    endloop
  endfacet
  facet normal 0 0 1
    outer loop
      vertex 0 6 10
      vertex -0.463525 4.42658 10
      vertex 0 4.5 10
    endloop
  endfacet
  facet normal -0 0 1
    outer loop
      vertex -0.927051 5.85317 10
      vertex -0.463525 4.42658 10
      vertex 0 6 10
    endloop
  endfacet
  facet normal 0 0 1
    outer loop
      vertex -0.463525 4.42658 10
      vertex -0.927051 5.85317 10
      vertex -0.881678 4.21352 10
    endloop
  endfacet
  facet normal -0 0 1
    outer loop
      vertex -1.76336 5.42705 10
      vertex -0.881678 4.21352 10
      vertex -0.927051 5.85317 10
    endloop
  endfacet
  facet normal 0 0 1
    outer loop
      vertex -0.881678 4.21352 10
      vertex -1.76336 5.42705 10
      vertex -1.21352 3.88168 10
    endloop
  endfacet
  facet normal 0 0 1
    outer loop
      vertex -1.21352 3.88168 10
      vertex -2.42705 4.76336 10
      vertex -1.42658 3.46352 10
    endloop
  endfacet
  facet normal -0 0 1
    outer loop
      vertex -2.42705 4.76336 10
      vertex -1.21352 3.88168 10
      vertex -1.76336 5.42705 10
    endloop
  endfacet
  facet normal -0 0 1
    outer loop
      vertex 0 1.5 10
      vertex 10 0 10
      vertex 10 1.5 10
    endloop
  endfacet
  facet normal 0 0 1
    outer loop
      vertex 0 1.5 10
      vertex 0 0 10
      vertex 10 0 10
    endloop
  endfacet
  facet normal 0 0 1
    outer loop
      vertex -0.463525 1.57341 10
      vertex 0 0 10
      vertex 0 1.5 10
    endloop
  endfacet
  facet normal 0 0 1
    outer loop
      vertex -1.20934 0.290662 10
      vertex -0.463525 1.57341 10
      vertex -0.881678 1.78647 10
    endloop
  endfacet
  facet normal 0 0 1
    outer loop
      vertex -0.463525 1.57341 10
      vertex -0.927051 0.14683 10
      vertex 0 0 10
    endloop
  endfacet
  facet normal 0 0 1
    outer loop
      vertex -0.463525 1.57341 10
      vertex -1.20934 0.290662 10
      vertex -0.927051 0.14683 10
    endloop
  endfacet
  facet normal 0 0 1
    outer loop
      vertex -1.21352 2.11832 10
      vertex -1.20934 0.290662 10
      vertex -0.881678 1.78647 10
    endloop
  endfacet
  facet normal 0 0 1
    outer loop
      vertex -2.96481 2.77783 10
      vertex -1.21352 2.11832 10
      vertex -1.42658 2.53647 10
    endloop
  endfacet
  facet normal -0 0 1
    outer loop
      vertex -2.96481 2.77783 10
      vertex -1.42658 2.53647 10
      vertex -1.5 3 10
    endloop
  endfacet
  facet normal -0 0 1
    outer loop
      vertex -2.85317 3.92705 10
      vertex -1.42658 3.46352 10
      vertex -2.42705 4.76336 10
    endloop
  endfacet
  facet normal 0 0 1
    outer loop
      vertex -1.42658 3.46352 10
      vertex -2.85317 3.92705 10
      vertex -1.5 3 10
    endloop
  endfacet
  facet normal 0 0 1
    outer loop
      vertex -3 3 10
      vertex -1.5 3 10
      vertex -2.85317 3.92705 10
    endloop
  endfacet
  facet normal 0 0 1
    outer loop
      vertex -1.21352 2.11832 10
      vertex -2.96481 2.77783 10
      vertex -1.20934 0.290662 10
    endloop
  endfacet
  facet normal 0 0 1
    outer loop
      vertex -10.6213 -4.87868 10
      vertex -1.20934 0.290662 10
      vertex -2.96481 2.77783 10
    endloop
  endfacet
  facet normal 0 0 1
    outer loop
      vertex -1.20934 0.290662 10
      vertex -10.6213 -4.87868 10
      vertex -8.5 -7 10
    endloop
  endfacet
  facet normal 0 0 1
    outer loop
      vertex -1.5 3 10
      vertex -3 3 10
      vertex -2.96481 2.77783 10
    endloop
  endfacet
  facet normal 1 -0 0
    outer loop
      vertex 10 0 10
      vertex 10 1.5 0
      vertex 10 1.5 10
    endloop
  endfacet
  facet normal 1 0 0
    outer loop
      vertex 10 1.5 0
      vertex 10 0 10
      vertex 10 0 0
    endloop
  endfacet
  facet normal 1 -0 0
    outer loop
      vertex 10 4.5 10
      vertex 10 6 0
      vertex 10 6 10
    endloop
  endfacet
  facet normal 1 0 0
    outer loop
      vertex 10 6 0
      vertex 10 4.5 10
      vertex 10 4.5 0
    endloop
  endfacet
  facet normal 0 0 -1
    outer loop
      vertex 0 0 0
      vertex 10 1.5 0
      vertex 10 0 0
    endloop
  endfacet
  facet normal 0 0 -1
    outer loop
      vertex 0 0 0
      vertex 0 1.5 0
      vertex 10 1.5 0
    endloop
  endfacet
  facet normal 0 0 -1
    outer loop
      vertex 0 0 0
      vertex -0.463525 1.57341 0
      vertex 0 1.5 0
    endloop
  endfacet
  facet normal 0 0 -1
    outer loop
      vertex -0.927051 0.14683 0
      vertex -0.463525 1.57341 0
      vertex 0 0 0
    endloop
  endfacet
  facet normal 0 0 -1
    outer loop
      vertex -1.20934 0.290662 0
      vertex -0.463525 1.57341 0
      vertex -0.927051 0.14683 0
    endloop
  endfacet
  facet normal -0 0 -1
    outer loop
      vertex -0.463525 1.57341 0
      vertex -1.20934 0.290662 0
      vertex -0.881678 1.78647 0
    endloop
  endfacet
  facet normal 0 0 -1
    outer loop
      vertex -1.20934 0.290662 0
      vertex -1.21352 2.11832 0
      vertex -0.881678 1.78647 0
    endloop
  endfacet
  facet normal 0 0 -1
    outer loop
      vertex -2.96481 2.77783 0
      vertex -1.21352 2.11832 0
      vertex -1.20934 0.290662 0
    endloop
  endfacet
  facet normal 0 0 -1
    outer loop
      vertex -1.21352 2.11832 0
      vertex -2.96481 2.77783 0
      vertex -1.42658 2.53647 0
    endloop
  endfacet
  facet normal 0 0 -1
    outer loop
      vertex -1.42658 2.53647 0
      vertex -2.96481 2.77783 0
      vertex -1.5 3 0
    endloop
  endfacet
  facet normal 0 0 -1
    outer loop
      vertex -3 3 0
      vertex -1.5 3 0
      vertex -2.96481 2.77783 0
    endloop
  endfacet
  facet normal 0 0 -1
    outer loop
      vertex -1.5 3 0
      vertex -2.42705 4.76336 0
      vertex -1.76336 5.42705 0
    endloop
  endfacet
  facet normal 0 0 -1
    outer loop
      vertex -1.5 3 0
      vertex -2.85317 3.92705 0
      vertex -2.42705 4.76336 0
    endloop
  endfacet
  facet normal 0 0 -1
    outer loop
      vertex -10.6213 -4.87868 0
      vertex -1.20934 0.290662 0
      vertex -8.5 -7 0
    endloop
  endfacet
  facet normal -0 0 -1
    outer loop
      vertex -1.20934 0.290662 0
      vertex -10.6213 -4.87868 0
      vertex -2.96481 2.77783 0
    endloop
  endfacet
  facet normal 0 0 -1
    outer loop
      vertex 0 4.5 0
      vertex 10 6 0
      vertex 10 4.5 0
    endloop
  endfacet
  facet normal 0 0 -1
    outer loop
      vertex 0 4.5 0
      vertex 0 6 0
      vertex 10 6 0
    endloop
  endfacet
  facet normal 0 0 -1
    outer loop
      vertex -0.463525 4.42658 0
      vertex 0 6 0
      vertex 0 4.5 0
    endloop
  endfacet
  facet normal 0 0 -1
    outer loop
      vertex -0.927051 5.85317 0
      vertex -0.463525 4.42658 0
      vertex -0.881678 4.21352 0
    endloop
  endfacet
  facet normal 0 0 -1
    outer loop
      vertex -0.463525 4.42658 0
      vertex -0.927051 5.85317 0
      vertex 0 6 0
    endloop
  endfacet
  facet normal 0 0 -1
    outer loop
      vertex -1.76336 5.42705 0
      vertex -0.881678 4.21352 0
      vertex -1.21352 3.88168 0
    endloop
  endfacet
  facet normal 0 0 -1
    outer loop
      vertex -1.76336 5.42705 0
      vertex -1.21352 3.88168 0
      vertex -1.42658 3.46352 0
    endloop
  endfacet
  facet normal 0 0 -1
    outer loop
      vertex -0.881678 4.21352 0
      vertex -1.76336 5.42705 0
      vertex -0.927051 5.85317 0
    endloop
  endfacet
  facet normal 0 0 -1
    outer loop
      vertex -1.76336 5.42705 0
      vertex -1.42658 3.46352 0
      vertex -1.5 3 0
    endloop
  endfacet
  facet normal 0 0 -1
    outer loop
      vertex -1.5 3 0
      vertex -3 3 0
      vertex -2.85317 3.92705 0
    endloop
  endfacet
  facet normal 0 -1 0
    outer loop
      vertex 0 0 0
      vertex 10 0 10
      vertex 0 0 10
    endloop
  endfacet
  facet normal 0 -1 -0
    outer loop
      vertex 10 0 10
      vertex 0 0 0
      vertex 10 0 0
    endloop
  endfacet
  facet normal 0 1 -0
    outer loop
      vertex 10 6 0
      vertex 0 6 10
      vertex 10 6 10
    endloop
  endfacet
  facet normal 0 1 0
    outer loop
      vertex 0 6 10
      vertex 10 6 0
      vertex 0 6 0
    endloop
  endfacet
  facet normal -0.987688 -0.156435 0
    outer loop
      vertex -2.96481 2.77783 0
      vertex -3 3 10
      vertex -3 3 0
    endloop
  endfacet
  facet normal -0.987688 -0.156435 0
    outer loop
      vertex -3 3 10
      vertex -2.96481 2.77783 0
      vertex -2.96481 2.77783 10
    endloop
  endfacet
  facet normal -0.156435 0.987688 0
    outer loop
      vertex 0 6 0
      vertex -0.927051 5.85317 10
      vertex 0 6 10
    endloop
  endfacet
  facet normal -0.156435 0.987688 0
    outer loop
      vertex -0.927051 5.85317 10
      vertex 0 6 0
      vertex -0.927051 5.85317 0
    endloop
  endfacet
  facet normal -0.453991 0.891006 0
    outer loop
      vertex -0.927051 5.85317 0
      vertex -1.76336 5.42705 10
      vertex -0.927051 5.85317 10
    endloop
  endfacet
  facet normal -0.453991 0.891006 0
    outer loop
      vertex -1.76336 5.42705 10
      vertex -0.927051 5.85317 0
      vertex -1.76336 5.42705 0
    endloop
  endfacet
  facet normal -0.156434 -0.987688 0
    outer loop
      vertex -0.927051 0.14683 0
      vertex 0 0 10
      vertex -0.927051 0.14683 10
    endloop
  endfacet
  facet normal -0.156434 -0.987688 -0
    outer loop
      vertex 0 0 10
      vertex -0.927051 0.14683 0
      vertex 0 0 0
    endloop
  endfacet
  facet normal -0.987688 0.156435 0
    outer loop
      vertex -3 3 0
      vertex -2.85317 3.92705 10
      vertex -2.85317 3.92705 0
    endloop
  endfacet
  facet normal -0.987688 0.156435 0
    outer loop
      vertex -2.85317 3.92705 10
      vertex -3 3 0
      vertex -3 3 10
    endloop
  endfacet
  facet normal -0.707107 0.707107 0
    outer loop
      vertex -2.42705 4.76336 0
      vertex -1.76336 5.42705 10
      vertex -1.76336 5.42705 0
    endloop
  endfacet
  facet normal -0.707107 0.707107 0
    outer loop
      vertex -1.76336 5.42705 10
      vertex -2.42705 4.76336 0
      vertex -2.42705 4.76336 10
    endloop
  endfacet
  facet normal -0.891006 0.453991 0
    outer loop
      vertex -2.85317 3.92705 0
      vertex -2.42705 4.76336 10
      vertex -2.42705 4.76336 0
    endloop
  endfacet
  facet normal -0.891006 0.453991 0
    outer loop
      vertex -2.42705 4.76336 10
      vertex -2.85317 3.92705 0
      vertex -2.85317 3.92705 10
    endloop
  endfacet
  facet normal -0.453991 -0.891006 0
    outer loop
      vertex -1.20934 0.290662 0
      vertex -0.927051 0.14683 10
      vertex -1.20934 0.290662 10
    endloop
  endfacet
  facet normal -0.453991 -0.891006 -0
    outer loop
      vertex -0.927051 0.14683 10
      vertex -1.20934 0.290662 0
      vertex -0.927051 0.14683 0
    endloop
  endfacet
  facet normal 0.156436 -0.987688 0
    outer loop
      vertex -0.463525 4.42658 0
      vertex 0 4.5 10
      vertex -0.463525 4.42658 10
    endloop
  endfacet
  facet normal 0.156436 -0.987688 0
    outer loop
      vertex 0 4.5 10
      vertex -0.463525 4.42658 0
      vertex 0 4.5 0
    endloop
  endfacet
  facet normal 0.707107 -0.707107 0
    outer loop
      vertex -1.21352 3.88168 10
      vertex -0.881678 4.21352 0
      vertex -0.881678 4.21352 10
    endloop
  endfacet
  facet normal 0.707107 -0.707107 0
    outer loop
      vertex -0.881678 4.21352 0
      vertex -1.21352 3.88168 10
      vertex -1.21352 3.88168 0
    endloop
  endfacet
  facet normal 0.45399 -0.891007 0
    outer loop
      vertex -0.881678 4.21352 0
      vertex -0.463525 4.42658 10
      vertex -0.881678 4.21352 10
    endloop
  endfacet
  facet normal 0.45399 -0.891007 0
    outer loop
      vertex -0.463525 4.42658 10
      vertex -0.881678 4.21352 0
      vertex -0.463525 4.42658 0
    endloop
  endfacet
  facet normal 0.45399 0.891007 -0
    outer loop
      vertex -0.463525 1.57341 0
      vertex -0.881678 1.78647 10
      vertex -0.463525 1.57341 10
    endloop
  endfacet
  facet normal 0.45399 0.891007 0
    outer loop
      vertex -0.881678 1.78647 10
      vertex -0.463525 1.57341 0
      vertex -0.881678 1.78647 0
    endloop
  endfacet
  facet normal 0.891007 0.45399 0
    outer loop
      vertex -1.21352 2.11832 10
      vertex -1.42658 2.53647 0
      vertex -1.42658 2.53647 10
    endloop
  endfacet
  facet normal 0.891007 0.45399 0
    outer loop
      vertex -1.42658 2.53647 0
      vertex -1.21352 2.11832 10
      vertex -1.21352 2.11832 0
    endloop
  endfacet
  facet normal 0.891007 -0.45399 0
    outer loop
      vertex -1.42658 3.46352 10
      vertex -1.21352 3.88168 0
      vertex -1.21352 3.88168 10
    endloop
  endfacet
  facet normal 0.891007 -0.45399 0
    outer loop
      vertex -1.21352 3.88168 0
      vertex -1.42658 3.46352 10
      vertex -1.42658 3.46352 0
    endloop
  endfacet
  facet normal 0.987688 -0.156436 0
    outer loop
      vertex -1.5 3 10
      vertex -1.42658 3.46352 0
      vertex -1.42658 3.46352 10
    endloop
  endfacet
  facet normal 0.987688 -0.156436 0
    outer loop
      vertex -1.42658 3.46352 0
      vertex -1.5 3 10
      vertex -1.5 3 0
    endloop
  endfacet
  facet normal 0.987688 0.156435 0
    outer loop
      vertex -1.42658 2.53647 10
      vertex -1.5 3 0
      vertex -1.5 3 10
    endloop
  endfacet
  facet normal 0.987688 0.156435 0
    outer loop
      vertex -1.5 3 0
      vertex -1.42658 2.53647 10
      vertex -1.42658 2.53647 0
    endloop
  endfacet
  facet normal 0.156434 0.987688 -0
    outer loop
      vertex 0 1.5 0
      vertex -0.463525 1.57341 10
      vertex 0 1.5 10
    endloop
  endfacet
  facet normal 0.156434 0.987688 0
    outer loop
      vertex -0.463525 1.57341 10
      vertex 0 1.5 0
      vertex -0.463525 1.57341 0
    endloop
  endfacet
  facet normal 0.707107 0.707107 0
    outer loop
      vertex -0.881678 1.78647 10
      vertex -1.21352 2.11832 0
      vertex -1.21352 2.11832 10
    endloop
  endfacet
  facet normal 0.707107 0.707107 0
    outer loop
      vertex -1.21352 2.11832 0
      vertex -0.881678 1.78647 10
      vertex -0.881678 1.78647 0
    endloop
  endfacet
  facet normal 0 1 -0
    outer loop
      vertex 10 1.5 0
      vertex 0 1.5 10
      vertex 10 1.5 10
    endloop
  endfacet
  facet normal 0 1 0
    outer loop
      vertex 0 1.5 10
      vertex 10 1.5 0
      vertex 0 1.5 0
    endloop
  endfacet
  facet normal 0 -1 0
    outer loop
      vertex 0 4.5 0
      vertex 10 4.5 10
      vertex 0 4.5 10
    endloop
  endfacet
  facet normal 0 -1 -0
    outer loop
      vertex 10 4.5 10
      vertex 0 4.5 0
      vertex 10 4.5 0
    endloop
  endfacet
  facet normal -0.707107 -0.707107 0
    outer loop
      vertex -10.6213 -4.87868 0
      vertex -8.5 -7 10
      vertex -10.6213 -4.87868 10
    endloop
  endfacet
  facet normal -0.707107 -0.707107 -0
    outer loop
      vertex -8.5 -7 10
      vertex -10.6213 -4.87868 0
      vertex -8.5 -7 0
    endloop
  endfacet
  facet normal -0.707107 0.707107 -5.83443e-08
    outer loop
      vertex -2.96481 2.77783 10
      vertex -7.08579 -1.34315 7
      vertex -10.6213 -4.87868 10
    endloop
  endfacet
  facet normal -0.707107 0.707107 7.98212e-08
    outer loop
      vertex -2.96481 2.77783 10
      vertex -6.64877 -0.90613 6.90211
      vertex -7.08579 -1.34315 7
    endloop
  endfacet
  facet normal -0.707107 0.707107 -2.81186e-07
    outer loop
      vertex -2.96481 2.77783 10
      vertex -6.25453 -0.511892 6.61803
      vertex -6.64877 -0.90613 6.90211
    endloop
  endfacet
  facet normal -0.707107 0.707107 3.7367e-07
    outer loop
      vertex -2.96481 2.77783 10
      vertex -5.94166 -0.199023 6.17557
      vertex -6.25453 -0.511892 6.61803
    endloop
  endfacet
  facet normal -0.707107 0.707107 -1.93003e-07
    outer loop
      vertex -2.96481 2.77783 10
      vertex -5.74079 0.00185122 5.61803
      vertex -5.94166 -0.199023 6.17557
    endloop
  endfacet
  facet normal -0.707107 0.707107 -1.39318e-07
    outer loop
      vertex -2.96481 2.77783 10
      vertex -5.67157 0.0710678 5
      vertex -5.74079 0.00185122 5.61803
    endloop
  endfacet
  facet normal -0.707107 0.707107 0
    outer loop
      vertex -2.96481 2.77783 0
      vertex -5.67157 0.0710678 5
      vertex -2.96481 2.77783 10
    endloop
  endfacet
  facet normal -0.707107 0.707107 1.39317e-07
    outer loop
      vertex -5.67157 0.0710678 5
      vertex -2.96481 2.77783 0
      vertex -5.74079 0.00185122 4.38197
    endloop
  endfacet
  facet normal -0.707107 0.707107 -7.98214e-08
    outer loop
      vertex -6.64877 -0.90613 3.09789
      vertex -2.96481 2.77783 0
      vertex -7.08579 -1.34315 3
    endloop
  endfacet
  facet normal -0.707107 0.707107 2.81186e-07
    outer loop
      vertex -6.25453 -0.511892 3.38197
      vertex -2.96481 2.77783 0
      vertex -6.64877 -0.90613 3.09789
    endloop
  endfacet
  facet normal -0.707107 0.707107 -3.7367e-07
    outer loop
      vertex -5.94166 -0.199023 3.82443
      vertex -2.96481 2.77783 0
      vertex -6.25453 -0.511892 3.38197
    endloop
  endfacet
  facet normal -0.707107 0.707107 1.93003e-07
    outer loop
      vertex -5.74079 0.00185122 4.38197
      vertex -2.96481 2.77783 0
      vertex -5.94166 -0.199023 3.82443
    endloop
  endfacet
  facet normal -0.707107 0.707107 1.13153e-07
    outer loop
      vertex -7.5228 -1.78016 6.90211
      vertex -10.6213 -4.87868 10
      vertex -7.08579 -1.34315 7
    endloop
  endfacet
  facet normal -0.707107 0.707107 -2.80193e-07
    outer loop
      vertex -7.91704 -2.1744 6.61803
      vertex -10.6213 -4.87868 10
      vertex -7.5228 -1.78016 6.90211
    endloop
  endfacet
  facet normal -0.707106 0.707107 3.57626e-07
    outer loop
      vertex -8.22991 -2.48727 6.17557
      vertex -10.6213 -4.87868 10
      vertex -7.91704 -2.1744 6.61803
    endloop
  endfacet
  facet normal -0.707107 0.707107 -1.91842e-07
    outer loop
      vertex -8.43078 -2.68814 5.61803
      vertex -10.6213 -4.87868 10
      vertex -8.22991 -2.48727 6.17557
    endloop
  endfacet
  facet normal -0.707107 0.707107 -7.04165e-09
    outer loop
      vertex -8.5 -2.75736 5
      vertex -10.6213 -4.87868 10
      vertex -8.43078 -2.68814 5.61803
    endloop
  endfacet
  facet normal -0.707107 0.707107 7.04165e-09
    outer loop
      vertex -10.6213 -4.87868 0
      vertex -8.5 -2.75736 5
      vertex -8.43078 -2.68814 4.38197
    endloop
  endfacet
  facet normal -0.707107 0.707107 1.91842e-07
    outer loop
      vertex -10.6213 -4.87868 0
      vertex -8.43078 -2.68814 4.38197
      vertex -8.22991 -2.48727 3.82443
    endloop
  endfacet
  facet normal -0.707107 0.707107 5.83443e-08
    outer loop
      vertex -10.6213 -4.87868 0
      vertex -7.08579 -1.34315 3
      vertex -2.96481 2.77783 0
    endloop
  endfacet
  facet normal -0.707107 0.707107 0
    outer loop
      vertex -8.5 -2.75736 5
      vertex -10.6213 -4.87868 0
      vertex -10.6213 -4.87868 10
    endloop
  endfacet
  facet normal -0.707106 0.707107 -3.57626e-07
    outer loop
      vertex -7.91704 -2.1744 3.38197
      vertex -10.6213 -4.87868 0
      vertex -8.22991 -2.48727 3.82443
    endloop
  endfacet
  facet normal -0.707107 0.707107 2.80193e-07
    outer loop
      vertex -7.5228 -1.78016 3.09789
      vertex -10.6213 -4.87868 0
      vertex -7.91704 -2.1744 3.38197
    endloop
  endfacet
  facet normal -0.707107 0.707107 -1.13154e-07
    outer loop
      vertex -7.08579 -1.34315 3
      vertex -10.6213 -4.87868 0
      vertex -7.5228 -1.78016 3.09789
    endloop
  endfacet
  facet normal 0.707107 -0.707107 0
    outer loop
      vertex -1.20934 0.290662 10
      vertex -3.55025 -2.05025 5
      vertex -1.20934 0.290662 0
    endloop
  endfacet
  facet normal 0.707107 -0.707107 1.62717e-09
    outer loop
      vertex -1.20934 0.290662 10
      vertex -3.61947 -2.11947 5.61803
      vertex -3.55025 -2.05025 5
    endloop
  endfacet
  facet normal 0.707107 -0.707107 3.80682e-09
    outer loop
      vertex -1.20934 0.290662 10
      vertex -3.82034 -2.32034 6.17557
      vertex -3.61947 -2.11947 5.61803
    endloop
  endfacet
  facet normal 0.707107 -0.707107 -1.8156e-07
    outer loop
      vertex -1.20934 0.290662 10
      vertex -4.13321 -2.63321 6.61803
      vertex -3.82034 -2.32034 6.17557
    endloop
  endfacet
  facet normal 0.707107 -0.707107 2.66188e-07
    outer loop
      vertex -1.20934 0.290662 10
      vertex -4.52745 -3.02745 6.90211
      vertex -4.13321 -2.63321 6.61803
    endloop
  endfacet
  facet normal 0.707107 -0.707107 1.09726e-08
    outer loop
      vertex -1.20934 0.290662 10
      vertex -4.96447 -3.46447 7
      vertex -4.52745 -3.02745 6.90211
    endloop
  endfacet
  facet normal 0.707107 -0.707107 6.8129e-09
    outer loop
      vertex -8.5 -7 10
      vertex -4.96447 -3.46447 7
      vertex -1.20934 0.290662 10
    endloop
  endfacet
  facet normal 0.707107 -0.707107 -3.59686e-07
    outer loop
      vertex -4.96447 -3.46447 7
      vertex -8.5 -7 10
      vertex -5.40148 -3.90148 6.90211
    endloop
  endfacet
  facet normal 0.707107 -0.707107 0
    outer loop
      vertex -6.30946 -4.80946 5.61803
      vertex -8.5 -7 10
      vertex -6.37868 -4.87868 5
    endloop
  endfacet
  facet normal 0.707107 -0.707107 0
    outer loop
      vertex -6.10859 -4.60859 6.17557
      vertex -8.5 -7 10
      vertex -6.30946 -4.80946 5.61803
    endloop
  endfacet
  facet normal 0.707107 -0.707107 0
    outer loop
      vertex -5.79572 -4.29572 6.61803
      vertex -8.5 -7 10
      vertex -6.10859 -4.60859 6.17557
    endloop
  endfacet
  facet normal 0.707107 -0.707107 2.16941e-07
    outer loop
      vertex -5.40148 -3.90148 6.90211
      vertex -8.5 -7 10
      vertex -5.79572 -4.29572 6.61803
    endloop
  endfacet
  facet normal 0.707107 -0.707107 -1.62717e-09
    outer loop
      vertex -3.61947 -2.11947 4.38197
      vertex -1.20934 0.290662 0
      vertex -3.55025 -2.05025 5
    endloop
  endfacet
  facet normal 0.707107 -0.707107 -3.80682e-09
    outer loop
      vertex -3.82034 -2.32034 3.82443
      vertex -1.20934 0.290662 0
      vertex -3.61947 -2.11947 4.38197
    endloop
  endfacet
  facet normal 0.707107 -0.707107 1.8156e-07
    outer loop
      vertex -4.13321 -2.63321 3.38197
      vertex -1.20934 0.290662 0
      vertex -3.82034 -2.32034 3.82443
    endloop
  endfacet
  facet normal 0.707107 -0.707107 -2.66188e-07
    outer loop
      vertex -4.52745 -3.02745 3.09789
      vertex -1.20934 0.290662 0
      vertex -4.13321 -2.63321 3.38197
    endloop
  endfacet
  facet normal 0.707107 -0.707107 -1.09726e-08
    outer loop
      vertex -4.96447 -3.46447 3
      vertex -1.20934 0.290662 0
      vertex -4.52745 -3.02745 3.09789
    endloop
  endfacet
  facet normal 0.707107 -0.707107 3.59686e-07
    outer loop
      vertex -8.5 -7 0
      vertex -4.96447 -3.46447 3
      vertex -5.40148 -3.90148 3.09789
    endloop
  endfacet
  facet normal 0.707107 -0.707107 -2.16941e-07
    outer loop
      vertex -8.5 -7 0
      vertex -5.40148 -3.90148 3.09789
      vertex -5.79572 -4.29572 3.38197
    endloop
  endfacet
  facet normal 0.707107 -0.707107 0
    outer loop
      vertex -8.5 -7 0
      vertex -6.37868 -4.87868 5
      vertex -8.5 -7 10
    endloop
  endfacet
  facet normal 0.707107 -0.707107 0
    outer loop
      vertex -6.37868 -4.87868 5
      vertex -8.5 -7 0
      vertex -6.30946 -4.80946 4.38197
    endloop
  endfacet
  facet normal 0.707107 -0.707107 -6.8129e-09
    outer loop
      vertex -4.96447 -3.46447 3
      vertex -8.5 -7 0
      vertex -1.20934 0.290662 0
    endloop
  endfacet
  facet normal 0.707107 -0.707107 0
    outer loop
      vertex -6.10859 -4.60859 3.82443
      vertex -8.5 -7 0
      vertex -5.79572 -4.29572 3.38197
    endloop
  endfacet
  facet normal 0.707107 -0.707107 0
    outer loop
      vertex -6.30946 -4.80946 4.38197
      vertex -8.5 -7 0
      vertex -6.10859 -4.60859 3.82443
    endloop
  endfacet
  facet normal -0.698401 -0.698401 -0.156435
    outer loop
      vertex -3.55025 -2.05025 5
      vertex -5.74079 0.00185122 5.61803
      vertex -5.67157 0.0710678 5
    endloop
  endfacet
  facet normal -0.698401 -0.698401 -0.156435
    outer loop
      vertex -5.74079 0.00185122 5.61803
      vertex -3.55025 -2.05025 5
      vertex -3.61947 -2.11947 5.61803
    endloop
  endfacet
  facet normal 0.698401 0.698401 0.156433
    outer loop
      vertex -8.5 -2.75736 5
      vertex -6.30946 -4.80946 4.38197
      vertex -8.43078 -2.68814 4.38197
    endloop
  endfacet
  facet normal 0.698401 0.698401 0.156433
    outer loop
      vertex -6.30946 -4.80946 4.38197
      vertex -8.5 -2.75736 5
      vertex -6.37868 -4.87868 5
    endloop
  endfacet
  facet normal -0.110615 -0.110615 0.987689
    outer loop
      vertex -6.64877 -0.90613 3.09789
      vertex -4.96447 -3.46447 3
      vertex -4.52745 -3.02745 3.09789
    endloop
  endfacet
  facet normal -0.110615 -0.110615 0.987689
    outer loop
      vertex -4.96447 -3.46447 3
      vertex -6.64877 -0.90613 3.09789
      vertex -7.08579 -1.34315 3
    endloop
  endfacet
  facet normal 0.110616 0.110616 -0.987688
    outer loop
      vertex -5.40148 -3.90148 6.90211
      vertex -7.08579 -1.34315 7
      vertex -4.96447 -3.46447 7
    endloop
  endfacet
  facet normal 0.110616 0.110616 -0.987688
    outer loop
      vertex -7.08579 -1.34315 7
      vertex -5.40148 -3.90148 6.90211
      vertex -7.5228 -1.78016 6.90211
    endloop
  endfacet
  facet normal -0.110616 -0.110616 -0.987688
    outer loop
      vertex -4.96447 -3.46447 7
      vertex -6.64877 -0.90613 6.90211
      vertex -4.52745 -3.02745 6.90211
    endloop
  endfacet
  facet normal -0.110616 -0.110616 -0.987688
    outer loop
      vertex -6.64877 -0.90613 6.90211
      vertex -4.96447 -3.46447 7
      vertex -7.08579 -1.34315 7
    endloop
  endfacet
  facet normal -0.630037 -0.630037 0.453991
    outer loop
      vertex -5.94166 -0.199023 3.82443
      vertex -3.61947 -2.11947 4.38197
      vertex -5.74079 0.00185122 4.38197
    endloop
  endfacet
  facet normal -0.630037 -0.630037 0.453991
    outer loop
      vertex -3.61947 -2.11947 4.38197
      vertex -5.94166 -0.199023 3.82443
      vertex -3.82034 -2.32034 3.82443
    endloop
  endfacet
  facet normal 0.110615 0.110615 0.987689
    outer loop
      vertex -7.08579 -1.34315 3
      vertex -5.40148 -3.90148 3.09789
      vertex -4.96447 -3.46447 3
    endloop
  endfacet
  facet normal 0.110615 0.110615 0.987689
    outer loop
      vertex -5.40148 -3.90148 3.09789
      vertex -7.08579 -1.34315 3
      vertex -7.5228 -1.78016 3.09789
    endloop
  endfacet
  facet normal -0.630037 -0.630037 -0.453991
    outer loop
      vertex -3.61947 -2.11947 5.61803
      vertex -5.94166 -0.199023 6.17557
      vertex -5.74079 0.00185122 5.61803
    endloop
  endfacet
  facet normal -0.630037 -0.630037 -0.453991
    outer loop
      vertex -5.94166 -0.199023 6.17557
      vertex -3.61947 -2.11947 5.61803
      vertex -3.82034 -2.32034 6.17557
    endloop
  endfacet
  facet normal -0.32102 -0.32102 -0.891006
    outer loop
      vertex -4.52745 -3.02745 6.90211
      vertex -6.25453 -0.511892 6.61803
      vertex -4.13321 -2.63321 6.61803
    endloop
  endfacet
  facet normal -0.32102 -0.32102 -0.891006
    outer loop
      vertex -6.25453 -0.511892 6.61803
      vertex -4.52745 -3.02745 6.90211
      vertex -6.64877 -0.90613 6.90211
    endloop
  endfacet
  facet normal 0.698401 0.698401 -0.156433
    outer loop
      vertex -6.30946 -4.80946 5.61803
      vertex -8.5 -2.75736 5
      vertex -8.43078 -2.68814 5.61803
    endloop
  endfacet
  facet normal 0.698401 0.698401 -0.156433
    outer loop
      vertex -8.5 -2.75736 5
      vertex -6.30946 -4.80946 5.61803
      vertex -6.37868 -4.87868 5
    endloop
  endfacet
  facet normal 0.32102 0.32102 -0.891006
    outer loop
      vertex -5.79572 -4.29572 6.61803
      vertex -7.5228 -1.78016 6.90211
      vertex -5.40148 -3.90148 6.90211
    endloop
  endfacet
  facet normal 0.32102 0.32102 -0.891006
    outer loop
      vertex -7.5228 -1.78016 6.90211
      vertex -5.79572 -4.29572 6.61803
      vertex -7.91704 -2.1744 6.61803
    endloop
  endfacet
  facet normal -0.5 -0.5 0.707107
    outer loop
      vertex -5.94166 -0.199023 3.82443
      vertex -4.13321 -2.63321 3.38197
      vertex -3.82034 -2.32034 3.82443
    endloop
  endfacet
  facet normal -0.5 -0.5 0.707107
    outer loop
      vertex -4.13321 -2.63321 3.38197
      vertex -5.94166 -0.199023 3.82443
      vertex -6.25453 -0.511892 3.38197
    endloop
  endfacet
  facet normal 0.630037 0.630037 0.453991
    outer loop
      vertex -8.43078 -2.68814 4.38197
      vertex -6.10859 -4.60859 3.82443
      vertex -8.22991 -2.48727 3.82443
    endloop
  endfacet
  facet normal 0.630037 0.630036 0.453991
    outer loop
      vertex -6.10859 -4.60859 3.82443
      vertex -8.43078 -2.68814 4.38197
      vertex -6.30946 -4.80946 4.38197
    endloop
  endfacet
  facet normal -0.5 -0.5 -0.707107
    outer loop
      vertex -4.13321 -2.63321 6.61803
      vertex -5.94166 -0.199023 6.17557
      vertex -3.82034 -2.32034 6.17557
    endloop
  endfacet
  facet normal -0.5 -0.5 -0.707107
    outer loop
      vertex -5.94166 -0.199023 6.17557
      vertex -4.13321 -2.63321 6.61803
      vertex -6.25453 -0.511892 6.61803
    endloop
  endfacet
  facet normal 0.5 0.5 -0.707107
    outer loop
      vertex -6.10859 -4.60859 6.17557
      vertex -7.91704 -2.1744 6.61803
      vertex -5.79572 -4.29572 6.61803
    endloop
  endfacet
  facet normal 0.5 0.5 -0.707107
    outer loop
      vertex -7.91704 -2.1744 6.61803
      vertex -6.10859 -4.60859 6.17557
      vertex -8.22991 -2.48727 6.17557
    endloop
  endfacet
  facet normal 0.630037 0.630037 -0.453991
    outer loop
      vertex -6.10859 -4.60859 6.17557
      vertex -8.43078 -2.68814 5.61803
      vertex -8.22991 -2.48727 6.17557
    endloop
  endfacet
  facet normal 0.630037 0.630036 -0.453991
    outer loop
      vertex -8.43078 -2.68814 5.61803
      vertex -6.10859 -4.60859 6.17557
      vertex -6.30946 -4.80946 5.61803
    endloop
  endfacet
  facet normal -0.698401 -0.698401 0.156435
    outer loop
      vertex -5.74079 0.00185122 4.38197
      vertex -3.55025 -2.05025 5
      vertex -5.67157 0.0710678 5
    endloop
  endfacet
  facet normal -0.698401 -0.698401 0.156435
    outer loop
      vertex -3.55025 -2.05025 5
      vertex -5.74079 0.00185122 4.38197
      vertex -3.61947 -2.11947 4.38197
    endloop
  endfacet
  facet normal -0.32102 -0.32102 0.891006
    outer loop
      vertex -6.25453 -0.511892 3.38197
      vertex -4.52745 -3.02745 3.09789
      vertex -4.13321 -2.63321 3.38197
    endloop
  endfacet
  facet normal -0.32102 -0.32102 0.891006
    outer loop
      vertex -4.52745 -3.02745 3.09789
      vertex -6.25453 -0.511892 3.38197
      vertex -6.64877 -0.90613 3.09789
    endloop
  endfacet
  facet normal 0.5 0.5 0.707107
    outer loop
      vertex -7.91704 -2.1744 3.38197
      vertex -6.10859 -4.60859 3.82443
      vertex -5.79572 -4.29572 3.38197
    endloop
  endfacet
  facet normal 0.5 0.5 0.707107
    outer loop
      vertex -6.10859 -4.60859 3.82443
      vertex -7.91704 -2.1744 3.38197
      vertex -8.22991 -2.48727 3.82443
    endloop
  endfacet
  facet normal 0.32102 0.32102 0.891006
    outer loop
      vertex -7.5228 -1.78016 3.09789
      vertex -5.79572 -4.29572 3.38197
      vertex -5.40148 -3.90148 3.09789
    endloop
  endfacet
  facet normal 0.32102 0.32102 0.891006
    outer loop
      vertex -5.79572 -4.29572 3.38197
      vertex -7.5228 -1.78016 3.09789
      vertex -7.91704 -2.1744 3.38197
    endloop
  endfacet
endsolid OpenSCAD_Model
