solid OpenSCAD_Model
  facet normal -1 0 0
    outer loop
      vertex 0 3.33067e-15 -15
      vertex 0 5 -10
      vertex 0 5 -15
    endloop
  endfacet
  facet normal -1 -0 0
    outer loop
      vertex 0 5 -10
      vertex 0 3.33067e-15 -15
      vertex 0 2.22045e-15 -10
    endloop
  endfacet
  facet normal 0 1 -0
    outer loop
      vertex 8 5 -15
      vertex 0 5 -10
      vertex 8 5 -10
    endloop
  endfacet
  facet normal 0 1 0
    outer loop
      vertex 8 5 -15
      vertex 0 5 -15
      vertex 0 5 -10
    endloop
  endfacet
  facet normal 0 1 0
    outer loop
      vertex 10 5 -35
      vertex 0 5 -15
      vertex 8 5 -15
    endloop
  endfacet
  facet normal 0 1 0
    outer loop
      vertex 0 5 -15
      vertex 10 5 -35
      vertex -2 5 -35
    endloop
  endfacet
  facet normal 1 0 0
    outer loop
      vertex 8 5 -10
      vertex 8 3.33067e-15 -15
      vertex 8 5 -15
    endloop
  endfacet
  facet normal 1 0 -0
    outer loop
      vertex 8 3.33067e-15 -15
      vertex 8 5 -10
      vertex 8 2.22045e-15 -10
    endloop
  endfacet
  facet normal 0 -1 -2.22045e-16
    outer loop
      vertex 0 3.33067e-15 -15
      vertex 8 2.22045e-15 -10
      vertex 0 2.22045e-15 -10
    endloop
  endfacet
  facet normal 0 -1 -2.22045e-16
    outer loop
      vertex 0 3.33067e-15 -15
      vertex 8 3.33067e-15 -15
      vertex 8 2.22045e-15 -10
    endloop
  endfacet
  facet normal 0 -1 -2.22045e-16
    outer loop
      vertex -2 7.77156e-15 -35
      vertex 8 3.33067e-15 -15
      vertex 0 3.33067e-15 -15
    endloop
  endfacet
  facet normal 0 -1 -2.22045e-16
    outer loop
      vertex -2 7.77156e-15 -35
      vertex 10 7.77156e-15 -35
      vertex 8 3.33067e-15 -15
    endloop
  endfacet
  facet normal 0 -1 -2.22045e-16
    outer loop
      vertex -2 1.11022e-14 -50
      vertex 10 7.77156e-15 -35
      vertex -2 7.77156e-15 -35
    endloop
  endfacet
  facet normal 0 -1 -2.22045e-16
    outer loop
      vertex 10 7.77156e-15 -35
      vertex -2 1.11022e-14 -50
      vertex 10 1.11022e-14 -50
    endloop
  endfacet
  facet normal -0 0 1
    outer loop
      vertex 0 5 -10
      vertex 8 2.22045e-15 -10
      vertex 8 5 -10
    endloop
  endfacet
  facet normal 0 0 1
    outer loop
      vertex 8 2.22045e-15 -10
      vertex 0 5 -10
      vertex 0 2.22045e-15 -10
    endloop
  endfacet
  facet normal 0.995037 0 0.0995037
    outer loop
      vertex 8 5 -15
      vertex 10 7.77156e-15 -35
      vertex 10 5 -35
    endloop
  endfacet
  facet normal 0.995037 0 0.0995037
    outer loop
      vertex 10 7.77156e-15 -35
      vertex 8 5 -15
      vertex 8 3.33067e-15 -15
    endloop
  endfacet
  facet normal 1 -0 0
    outer loop
      vertex 10 5 -35
      vertex 10 20 -50
      vertex 10 20 -35
    endloop
  endfacet
  facet normal 1 0 0
    outer loop
      vertex 10 5 -35
      vertex 10 1.11022e-14 -50
      vertex 10 20 -50
    endloop
  endfacet
  facet normal 1 0 -0
    outer loop
      vertex 10 1.11022e-14 -50
      vertex 10 5 -35
      vertex 10 7.77156e-15 -35
    endloop
  endfacet
  facet normal -0.995037 0 0.0995037
    outer loop
      vertex -2 7.77156e-15 -35
      vertex 0 5 -15
      vertex -2 5 -35
    endloop
  endfacet
  facet normal -0.995037 0 0.0995037
    outer loop
      vertex 0 5 -15
      vertex -2 7.77156e-15 -35
      vertex 0 3.33067e-15 -15
    endloop
  endfacet
  facet normal -1 0 0
    outer loop
      vertex -2 20 -50
      vertex -2 5 -35
      vertex -2 20 -35
    endloop
  endfacet
  facet normal -1 0 0
    outer loop
      vertex -2 1.11022e-14 -50
      vertex -2 5 -35
      vertex -2 20 -50
    endloop
  endfacet
  facet normal -1 -0 0
    outer loop
      vertex -2 5 -35
      vertex -2 1.11022e-14 -50
      vertex -2 7.77156e-15 -35
    endloop
  endfacet
  facet normal 0 1 -0
    outer loop
      vertex -0.75 20 -50
      vertex -2 20 -35
      vertex -0.75 20 -35
    endloop
  endfacet
  facet normal 0 1 0
    outer loop
      vertex -2 20 -35
      vertex -0.75 20 -50
      vertex -2 20 -50
    endloop
  endfacet
  facet normal 0 1 -0
    outer loop
      vertex 10 20 -50
      vertex 8.75 20 -35
      vertex 10 20 -35
    endloop
  endfacet
  facet normal 0 1 0
    outer loop
      vertex 8.75 20 -35
      vertex 10 20 -50
      vertex 8.75 20 -50
    endloop
  endfacet
  facet normal 0 0 -1
    outer loop
      vertex 10 20 -50
      vertex 8.74288 15.2267 -50
      vertex 8.75 16 -50
    endloop
  endfacet
  facet normal 0 0 -1
    outer loop
      vertex 8.74063 15.2983 -50
      vertex 8.75 16 -50
      vertex 8.74288 15.2267 -50
    endloop
  endfacet
  facet normal 0 0 -1
    outer loop
      vertex 8.71254 15.5953 -50
      vertex 8.75 16 -50
      vertex 8.74063 15.2983 -50
    endloop
  endfacet
  facet normal 0 0 -1
    outer loop
      vertex 8.66586 15.8901 -50
      vertex 8.75 16 -50
      vertex 8.71254 15.5953 -50
    endloop
  endfacet
  facet normal -0 0 -1
    outer loop
      vertex 8.75 16 -50
      vertex 8.66586 15.8901 -50
      vertex 8.64129 16 -50
    endloop
  endfacet
  facet normal 0 0 -1
    outer loop
      vertex 8.71254 14.4047 -50
      vertex 10 20 -50
      vertex 10 1.11022e-14 -50
    endloop
  endfacet
  facet normal 0 0 -1
    outer loop
      vertex 10 20 -50
      vertex 8.74775 14.9284 -50
      vertex 8.75 15 -50
    endloop
  endfacet
  facet normal 0 0 -1
    outer loop
      vertex 10 20 -50
      vertex 8.74063 14.7017 -50
      vertex 8.74775 14.9284 -50
    endloop
  endfacet
  facet normal 0 0 -1
    outer loop
      vertex 10 20 -50
      vertex 8.71254 14.4047 -50
      vertex 8.74063 14.7017 -50
    endloop
  endfacet
  facet normal 0 0 -1
    outer loop
      vertex 10 1.11022e-14 -50
      vertex 8.66586 14.1099 -50
      vertex 8.71254 14.4047 -50
    endloop
  endfacet
  facet normal 0 0 -1
    outer loop
      vertex 10 1.11022e-14 -50
      vertex 8.60077 13.8187 -50
      vertex 8.66586 14.1099 -50
    endloop
  endfacet
  facet normal 0 0 -1
    outer loop
      vertex 10 1.11022e-14 -50
      vertex 8.51752 13.5322 -50
      vertex 8.60077 13.8187 -50
    endloop
  endfacet
  facet normal 0 0 -1
    outer loop
      vertex 10 1.11022e-14 -50
      vertex 8.41644 13.2514 -50
      vertex 8.51752 13.5322 -50
    endloop
  endfacet
  facet normal 0 0 -1
    outer loop
      vertex 10 1.11022e-14 -50
      vertex 8.29793 12.9775 -50
      vertex 8.41644 13.2514 -50
    endloop
  endfacet
  facet normal 0 0 -1
    outer loop
      vertex 10 1.11022e-14 -50
      vertex 8.16246 12.7117 -50
      vertex 8.29793 12.9775 -50
    endloop
  endfacet
  facet normal 0 0 -1
    outer loop
      vertex 10 1.11022e-14 -50
      vertex 8.01056 12.4548 -50
      vertex 8.16246 12.7117 -50
    endloop
  endfacet
  facet normal 0 0 -1
    outer loop
      vertex 10 1.11022e-14 -50
      vertex 7.84283 12.208 -50
      vertex 8.01056 12.4548 -50
    endloop
  endfacet
  facet normal 0 0 -1
    outer loop
      vertex 10 1.11022e-14 -50
      vertex 7.65994 11.9722 -50
      vertex 7.84283 12.208 -50
    endloop
  endfacet
  facet normal 0 0 -1
    outer loop
      vertex 10 1.11022e-14 -50
      vertex 7.4626 11.7484 -50
      vertex 7.65994 11.9722 -50
    endloop
  endfacet
  facet normal 0 0 -1
    outer loop
      vertex 10 1.11022e-14 -50
      vertex 7.2516 11.5374 -50
      vertex 7.4626 11.7484 -50
    endloop
  endfacet
  facet normal 0 0 -1
    outer loop
      vertex 10 1.11022e-14 -50
      vertex 7.02776 11.3401 -50
      vertex 7.2516 11.5374 -50
    endloop
  endfacet
  facet normal 0 0 -1
    outer loop
      vertex 10 1.11022e-14 -50
      vertex 6.79198 11.1572 -50
      vertex 7.02776 11.3401 -50
    endloop
  endfacet
  facet normal 0 0 -1
    outer loop
      vertex 10 1.11022e-14 -50
      vertex 6.54518 10.9894 -50
      vertex 6.79198 11.1572 -50
    endloop
  endfacet
  facet normal 0 0 -1
    outer loop
      vertex 10 1.11022e-14 -50
      vertex 6.28833 10.8375 -50
      vertex 6.54518 10.9894 -50
    endloop
  endfacet
  facet normal 0 0 -1
    outer loop
      vertex 10 1.11022e-14 -50
      vertex 6.02245 10.7021 -50
      vertex 6.28833 10.8375 -50
    endloop
  endfacet
  facet normal 0 0 -1
    outer loop
      vertex 10 1.11022e-14 -50
      vertex 5.74859 10.5836 -50
      vertex 6.02245 10.7021 -50
    endloop
  endfacet
  facet normal 0 0 -1
    outer loop
      vertex 10 1.11022e-14 -50
      vertex 5.46783 10.4825 -50
      vertex 5.74859 10.5836 -50
    endloop
  endfacet
  facet normal 0 0 -1
    outer loop
      vertex 10 1.11022e-14 -50
      vertex 5.18128 10.3992 -50
      vertex 5.46783 10.4825 -50
    endloop
  endfacet
  facet normal 0 0 -1
    outer loop
      vertex 10 1.11022e-14 -50
      vertex 4.89006 10.3341 -50
      vertex 5.18128 10.3992 -50
    endloop
  endfacet
  facet normal 0 0 -1
    outer loop
      vertex 10 1.11022e-14 -50
      vertex 4.59533 10.2875 -50
      vertex 4.89006 10.3341 -50
    endloop
  endfacet
  facet normal 0 0 -1
    outer loop
      vertex 10 1.11022e-14 -50
      vertex 4.29825 10.2594 -50
      vertex 4.59533 10.2875 -50
    endloop
  endfacet
  facet normal 0 0 -1
    outer loop
      vertex 10 1.11022e-14 -50
      vertex 4.07158 10.2522 -50
      vertex 4.29825 10.2594 -50
    endloop
  endfacet
  facet normal 0 0 -1
    outer loop
      vertex 10 1.11022e-14 -50
      vertex 4 10.25 -50
      vertex 4.07158 10.2522 -50
    endloop
  endfacet
  facet normal 0 0 -1
    outer loop
      vertex -2 1.11022e-14 -50
      vertex 4 10.25 -50
      vertex 10 1.11022e-14 -50
    endloop
  endfacet
  facet normal -0 0 -1
    outer loop
      vertex 4 10.25 -50
      vertex -2 1.11022e-14 -50
      vertex 3.92842 10.2522 -50
    endloop
  endfacet
  facet normal -0 0 -1
    outer loop
      vertex 3.92842 10.2522 -50
      vertex -2 1.11022e-14 -50
      vertex 3.70174 10.2594 -50
    endloop
  endfacet
  facet normal -0 0 -1
    outer loop
      vertex 3.70174 10.2594 -50
      vertex -2 1.11022e-14 -50
      vertex 3.40467 10.2875 -50
    endloop
  endfacet
  facet normal -0 0 -1
    outer loop
      vertex 3.40467 10.2875 -50
      vertex -2 1.11022e-14 -50
      vertex 3.10994 10.3341 -50
    endloop
  endfacet
  facet normal -0 0 -1
    outer loop
      vertex 3.10994 10.3341 -50
      vertex -2 1.11022e-14 -50
      vertex 2.81872 10.3992 -50
    endloop
  endfacet
  facet normal -0 0 -1
    outer loop
      vertex 2.81872 10.3992 -50
      vertex -2 1.11022e-14 -50
      vertex 2.53217 10.4825 -50
    endloop
  endfacet
  facet normal -0 0 -1
    outer loop
      vertex 2.53217 10.4825 -50
      vertex -2 1.11022e-14 -50
      vertex 2.25141 10.5836 -50
    endloop
  endfacet
  facet normal -0 0 -1
    outer loop
      vertex 2.25141 10.5836 -50
      vertex -2 1.11022e-14 -50
      vertex 1.97755 10.7021 -50
    endloop
  endfacet
  facet normal -0 0 -1
    outer loop
      vertex 1.97755 10.7021 -50
      vertex -2 1.11022e-14 -50
      vertex 1.71167 10.8375 -50
    endloop
  endfacet
  facet normal -0 0 -1
    outer loop
      vertex 1.71167 10.8375 -50
      vertex -2 1.11022e-14 -50
      vertex 1.45482 10.9894 -50
    endloop
  endfacet
  facet normal -0 0 -1
    outer loop
      vertex 1.45482 10.9894 -50
      vertex -2 1.11022e-14 -50
      vertex 1.20802 11.1572 -50
    endloop
  endfacet
  facet normal -0 0 -1
    outer loop
      vertex 1.20802 11.1572 -50
      vertex -2 1.11022e-14 -50
      vertex 0.972236 11.3401 -50
    endloop
  endfacet
  facet normal -0 0 -1
    outer loop
      vertex 0.972236 11.3401 -50
      vertex -2 1.11022e-14 -50
      vertex 0.748401 11.5374 -50
    endloop
  endfacet
  facet normal -0 0 -1
    outer loop
      vertex 0.748401 11.5374 -50
      vertex -2 1.11022e-14 -50
      vertex 0.537398 11.7484 -50
    endloop
  endfacet
  facet normal 0 0 -1
    outer loop
      vertex -0.742876 15.2267 -50
      vertex -2 20 -50
      vertex -0.75 16 -50
    endloop
  endfacet
  facet normal -0 0 -1
    outer loop
      vertex 0.537398 11.7484 -50
      vertex -2 1.11022e-14 -50
      vertex 0.340061 11.9722 -50
    endloop
  endfacet
  facet normal 0 0 -1
    outer loop
      vertex -2 1.11022e-14 -50
      vertex 0.157168 12.208 -50
      vertex 0.340061 11.9722 -50
    endloop
  endfacet
  facet normal 0 0 -1
    outer loop
      vertex -2 1.11022e-14 -50
      vertex -0.0105572 12.4548 -50
      vertex 0.157168 12.208 -50
    endloop
  endfacet
  facet normal 0 0 -1
    outer loop
      vertex -2 1.11022e-14 -50
      vertex -0.162457 12.7117 -50
      vertex -0.0105572 12.4548 -50
    endloop
  endfacet
  facet normal 0 0 -1
    outer loop
      vertex -2 1.11022e-14 -50
      vertex -0.297928 12.9775 -50
      vertex -0.162457 12.7117 -50
    endloop
  endfacet
  facet normal 0 0 -1
    outer loop
      vertex -2 1.11022e-14 -50
      vertex -0.416438 13.2514 -50
      vertex -0.297928 12.9775 -50
    endloop
  endfacet
  facet normal 0 0 -1
    outer loop
      vertex -2 1.11022e-14 -50
      vertex -0.517518 13.5322 -50
      vertex -0.416438 13.2514 -50
    endloop
  endfacet
  facet normal 0 0 -1
    outer loop
      vertex -2 1.11022e-14 -50
      vertex -0.60077 13.8187 -50
      vertex -0.517518 13.5322 -50
    endloop
  endfacet
  facet normal 0 0 -1
    outer loop
      vertex -2 1.11022e-14 -50
      vertex -0.665864 14.1099 -50
      vertex -0.60077 13.8187 -50
    endloop
  endfacet
  facet normal 0 0 -1
    outer loop
      vertex -2 1.11022e-14 -50
      vertex -0.712544 14.4047 -50
      vertex -0.665864 14.1099 -50
    endloop
  endfacet
  facet normal 0 0 -1
    outer loop
      vertex -2 20 -50
      vertex -0.712544 14.4047 -50
      vertex -2 1.11022e-14 -50
    endloop
  endfacet
  facet normal 0 0 -1
    outer loop
      vertex -0.712544 14.4047 -50
      vertex -2 20 -50
      vertex -0.740626 14.7017 -50
    endloop
  endfacet
  facet normal 0 0 -1
    outer loop
      vertex -0.740626 14.7017 -50
      vertex -2 20 -50
      vertex -0.74775 14.9284 -50
    endloop
  endfacet
  facet normal 0 0 -1
    outer loop
      vertex -0.74775 14.9284 -50
      vertex -2 20 -50
      vertex -0.75 15 -50
    endloop
  endfacet
  facet normal 0 0 -1
    outer loop
      vertex -0.75 16 -50
      vertex -2 20 -50
      vertex -0.75 20 -50
    endloop
  endfacet
  facet normal 0 0 -1
    outer loop
      vertex 8.74288 15.2267 -50
      vertex 10 20 -50
      vertex 8.75 15 -50
    endloop
  endfacet
  facet normal -0 0 -1
    outer loop
      vertex 10 20 -50
      vertex 8.75 16 -50
      vertex 8.75 20 -50
    endloop
  endfacet
  facet normal 0 0 -1
    outer loop
      vertex -2 20 -50
      vertex -0.742876 15.2267 -50
      vertex -0.75 15 -50
    endloop
  endfacet
  facet normal 0 0 -1
    outer loop
      vertex -0.665864 15.8901 -50
      vertex -0.75 16 -50
      vertex -0.64129 16 -50
    endloop
  endfacet
  facet normal 0 0 -1
    outer loop
      vertex -0.712544 15.5953 -50
      vertex -0.75 16 -50
      vertex -0.665864 15.8901 -50
    endloop
  endfacet
  facet normal 0 0 -1
    outer loop
      vertex -0.740626 15.2983 -50
      vertex -0.75 16 -50
      vertex -0.712544 15.5953 -50
    endloop
  endfacet
  facet normal 0 0 -1
    outer loop
      vertex -0.742876 15.2267 -50
      vertex -0.75 16 -50
      vertex -0.740626 15.2983 -50
    endloop
  endfacet
  facet normal -0 0 1
    outer loop
      vertex -2 20 -35
      vertex -0.75 16 -35
      vertex -0.75 20 -35
    endloop
  endfacet
  facet normal 0 0 1
    outer loop
      vertex -0.75 16 -35
      vertex -2 20 -35
      vertex -0.75 15 -35
    endloop
  endfacet
  facet normal -0 0 1
    outer loop
      vertex -0.75 16 -35
      vertex -0.665864 15.8901 -35
      vertex -0.64129 16 -35
    endloop
  endfacet
  facet normal 0 0 1
    outer loop
      vertex -0.75 16 -35
      vertex -0.712544 15.5953 -35
      vertex -0.665864 15.8901 -35
    endloop
  endfacet
  facet normal 0 0 1
    outer loop
      vertex -0.75 16 -35
      vertex -0.740626 15.2983 -35
      vertex -0.712544 15.5953 -35
    endloop
  endfacet
  facet normal 0 0 1
    outer loop
      vertex -0.75 16 -35
      vertex -0.745688 15.1372 -35
      vertex -0.740626 15.2983 -35
    endloop
  endfacet
  facet normal 0 0 1
    outer loop
      vertex -0.745688 15.1372 -35
      vertex -0.75 16 -35
      vertex -0.75 15 -35
    endloop
  endfacet
  facet normal 0 0 1
    outer loop
      vertex 10 20 -35
      vertex 8.74569 15.1372 -35
      vertex 8.75 15 -35
    endloop
  endfacet
  facet normal 0 0 1
    outer loop
      vertex 8.75 16 -35
      vertex 8.74063 15.2983 -35
      vertex 8.74569 15.1372 -35
    endloop
  endfacet
  facet normal 0 0 1
    outer loop
      vertex 8.75 16 -35
      vertex 8.71254 15.5953 -35
      vertex 8.74063 15.2983 -35
    endloop
  endfacet
  facet normal 0 0 1
    outer loop
      vertex 8.75 16 -35
      vertex 8.66586 15.8901 -35
      vertex 8.71254 15.5953 -35
    endloop
  endfacet
  facet normal 0 -0 1
    outer loop
      vertex 8.66586 15.8901 -35
      vertex 8.75 16 -35
      vertex 8.64129 16 -35
    endloop
  endfacet
  facet normal 0 0 1
    outer loop
      vertex 8.75 16 -35
      vertex 10 20 -35
      vertex 8.75 20 -35
    endloop
  endfacet
  facet normal 0 0 1
    outer loop
      vertex 8.74569 15.1372 -35
      vertex 10 20 -35
      vertex 8.75 16 -35
    endloop
  endfacet
  facet normal 0 0 1
    outer loop
      vertex 8.74494 14.8389 -35
      vertex 10 20 -35
      vertex 8.75 15 -35
    endloop
  endfacet
  facet normal 0 0 1
    outer loop
      vertex 8.74063 14.7017 -35
      vertex 10 20 -35
      vertex 8.74494 14.8389 -35
    endloop
  endfacet
  facet normal 0 0 1
    outer loop
      vertex 10 20 -35
      vertex 8.74063 14.7017 -35
      vertex 10 5 -35
    endloop
  endfacet
  facet normal -0 0 1
    outer loop
      vertex 8.71254 14.4047 -35
      vertex 10 5 -35
      vertex 8.74063 14.7017 -35
    endloop
  endfacet
  facet normal -0 0 1
    outer loop
      vertex 8.66586 14.1099 -35
      vertex 10 5 -35
      vertex 8.71254 14.4047 -35
    endloop
  endfacet
  facet normal -0 0 1
    outer loop
      vertex 8.60077 13.8187 -35
      vertex 10 5 -35
      vertex 8.66586 14.1099 -35
    endloop
  endfacet
  facet normal -0 0 1
    outer loop
      vertex 8.51752 13.5322 -35
      vertex 10 5 -35
      vertex 8.60077 13.8187 -35
    endloop
  endfacet
  facet normal -0 0 1
    outer loop
      vertex 8.41644 13.2514 -35
      vertex 10 5 -35
      vertex 8.51752 13.5322 -35
    endloop
  endfacet
  facet normal -0 0 1
    outer loop
      vertex 8.29793 12.9775 -35
      vertex 10 5 -35
      vertex 8.41644 13.2514 -35
    endloop
  endfacet
  facet normal -0 0 1
    outer loop
      vertex 8.16246 12.7117 -35
      vertex 10 5 -35
      vertex 8.29793 12.9775 -35
    endloop
  endfacet
  facet normal -0 0 1
    outer loop
      vertex 8.01056 12.4548 -35
      vertex 10 5 -35
      vertex 8.16246 12.7117 -35
    endloop
  endfacet
  facet normal -0 0 1
    outer loop
      vertex 7.84283 12.208 -35
      vertex 10 5 -35
      vertex 8.01056 12.4548 -35
    endloop
  endfacet
  facet normal -0 0 1
    outer loop
      vertex 7.65994 11.9722 -35
      vertex 10 5 -35
      vertex 7.84283 12.208 -35
    endloop
  endfacet
  facet normal -0 0 1
    outer loop
      vertex 7.4626 11.7484 -35
      vertex 10 5 -35
      vertex 7.65994 11.9722 -35
    endloop
  endfacet
  facet normal -0 0 1
    outer loop
      vertex 7.2516 11.5374 -35
      vertex 10 5 -35
      vertex 7.4626 11.7484 -35
    endloop
  endfacet
  facet normal -0 0 1
    outer loop
      vertex 7.02776 11.3401 -35
      vertex 10 5 -35
      vertex 7.2516 11.5374 -35
    endloop
  endfacet
  facet normal -0 0 1
    outer loop
      vertex 6.79198 11.1572 -35
      vertex 10 5 -35
      vertex 7.02776 11.3401 -35
    endloop
  endfacet
  facet normal -0 0 1
    outer loop
      vertex 6.54518 10.9894 -35
      vertex 10 5 -35
      vertex 6.79198 11.1572 -35
    endloop
  endfacet
  facet normal -0 0 1
    outer loop
      vertex 6.28833 10.8375 -35
      vertex 10 5 -35
      vertex 6.54518 10.9894 -35
    endloop
  endfacet
  facet normal -0 0 1
    outer loop
      vertex 6.02245 10.7021 -35
      vertex 10 5 -35
      vertex 6.28833 10.8375 -35
    endloop
  endfacet
  facet normal -0 0 1
    outer loop
      vertex 5.74859 10.5836 -35
      vertex 10 5 -35
      vertex 6.02245 10.7021 -35
    endloop
  endfacet
  facet normal -0 0 1
    outer loop
      vertex 5.46783 10.4825 -35
      vertex 10 5 -35
      vertex 5.74859 10.5836 -35
    endloop
  endfacet
  facet normal -0 0 1
    outer loop
      vertex 5.18128 10.3992 -35
      vertex 10 5 -35
      vertex 5.46783 10.4825 -35
    endloop
  endfacet
  facet normal -0 0 1
    outer loop
      vertex 4.89006 10.3341 -35
      vertex 10 5 -35
      vertex 5.18128 10.3992 -35
    endloop
  endfacet
  facet normal -0 0 1
    outer loop
      vertex 4.59533 10.2875 -35
      vertex 10 5 -35
      vertex 4.89006 10.3341 -35
    endloop
  endfacet
  facet normal -0 0 1
    outer loop
      vertex 4.29825 10.2594 -35
      vertex 10 5 -35
      vertex 4.59533 10.2875 -35
    endloop
  endfacet
  facet normal -0 0 1
    outer loop
      vertex 4.16106 10.2551 -35
      vertex 10 5 -35
      vertex 4.29825 10.2594 -35
    endloop
  endfacet
  facet normal -0 0 1
    outer loop
      vertex 4 10.25 -35
      vertex 10 5 -35
      vertex 4.16106 10.2551 -35
    endloop
  endfacet
  facet normal 0 0 1
    outer loop
      vertex -2 5 -35
      vertex 4 10.25 -35
      vertex 3.83894 10.2551 -35
    endloop
  endfacet
  facet normal 0 0 1
    outer loop
      vertex -2 5 -35
      vertex 3.83894 10.2551 -35
      vertex 3.70174 10.2594 -35
    endloop
  endfacet
  facet normal 0 0 1
    outer loop
      vertex -2 5 -35
      vertex 3.70174 10.2594 -35
      vertex 3.40467 10.2875 -35
    endloop
  endfacet
  facet normal 0 0 1
    outer loop
      vertex -2 5 -35
      vertex 3.40467 10.2875 -35
      vertex 3.10994 10.3341 -35
    endloop
  endfacet
  facet normal 0 0 1
    outer loop
      vertex -2 5 -35
      vertex 3.10994 10.3341 -35
      vertex 2.81872 10.3992 -35
    endloop
  endfacet
  facet normal 0 0 1
    outer loop
      vertex -2 5 -35
      vertex 2.81872 10.3992 -35
      vertex 2.53217 10.4825 -35
    endloop
  endfacet
  facet normal 0 0 1
    outer loop
      vertex -2 5 -35
      vertex 2.53217 10.4825 -35
      vertex 2.25141 10.5836 -35
    endloop
  endfacet
  facet normal 0 0 1
    outer loop
      vertex -2 5 -35
      vertex 2.25141 10.5836 -35
      vertex 1.97755 10.7021 -35
    endloop
  endfacet
  facet normal 0 0 1
    outer loop
      vertex -2 5 -35
      vertex 1.97755 10.7021 -35
      vertex 1.71167 10.8375 -35
    endloop
  endfacet
  facet normal 0 0 1
    outer loop
      vertex -2 5 -35
      vertex 1.71167 10.8375 -35
      vertex 1.45482 10.9894 -35
    endloop
  endfacet
  facet normal 0 0 1
    outer loop
      vertex -2 5 -35
      vertex 1.45482 10.9894 -35
      vertex 1.20802 11.1572 -35
    endloop
  endfacet
  facet normal 0 0 1
    outer loop
      vertex -2 20 -35
      vertex -0.744938 14.8389 -35
      vertex -0.75 15 -35
    endloop
  endfacet
  facet normal 0 0 1
    outer loop
      vertex -0.744938 14.8389 -35
      vertex -2 20 -35
      vertex -0.740626 14.7017 -35
    endloop
  endfacet
  facet normal 0 0 1
    outer loop
      vertex -2 20 -35
      vertex -0.712544 14.4047 -35
      vertex -0.740626 14.7017 -35
    endloop
  endfacet
  facet normal 0 0 1
    outer loop
      vertex -2 5 -35
      vertex -0.712544 14.4047 -35
      vertex -2 20 -35
    endloop
  endfacet
  facet normal 0 0 1
    outer loop
      vertex -0.712544 14.4047 -35
      vertex -2 5 -35
      vertex -0.665864 14.1099 -35
    endloop
  endfacet
  facet normal 0 0 1
    outer loop
      vertex 4 10.25 -35
      vertex -2 5 -35
      vertex 10 5 -35
    endloop
  endfacet
  facet normal 0 0 1
    outer loop
      vertex 0.972236 11.3401 -35
      vertex -2 5 -35
      vertex 1.20802 11.1572 -35
    endloop
  endfacet
  facet normal 0 0 1
    outer loop
      vertex 0.748401 11.5374 -35
      vertex -2 5 -35
      vertex 0.972236 11.3401 -35
    endloop
  endfacet
  facet normal 0 0 1
    outer loop
      vertex 0.537398 11.7484 -35
      vertex -2 5 -35
      vertex 0.748401 11.5374 -35
    endloop
  endfacet
  facet normal 0 0 1
    outer loop
      vertex 0.340061 11.9722 -35
      vertex -2 5 -35
      vertex 0.537398 11.7484 -35
    endloop
  endfacet
  facet normal 0 0 1
    outer loop
      vertex 0.157168 12.208 -35
      vertex -2 5 -35
      vertex 0.340061 11.9722 -35
    endloop
  endfacet
  facet normal 0 0 1
    outer loop
      vertex -0.0105572 12.4548 -35
      vertex -2 5 -35
      vertex 0.157168 12.208 -35
    endloop
  endfacet
  facet normal 0 0 1
    outer loop
      vertex -0.162457 12.7117 -35
      vertex -2 5 -35
      vertex -0.0105572 12.4548 -35
    endloop
  endfacet
  facet normal 0 0 1
    outer loop
      vertex -0.297928 12.9775 -35
      vertex -2 5 -35
      vertex -0.162457 12.7117 -35
    endloop
  endfacet
  facet normal 0 0 1
    outer loop
      vertex -0.416438 13.2514 -35
      vertex -2 5 -35
      vertex -0.297928 12.9775 -35
    endloop
  endfacet
  facet normal 0 0 1
    outer loop
      vertex -0.517518 13.5322 -35
      vertex -2 5 -35
      vertex -0.416438 13.2514 -35
    endloop
  endfacet
  facet normal 0 0 1
    outer loop
      vertex -0.60077 13.8187 -35
      vertex -2 5 -35
      vertex -0.517518 13.5322 -35
    endloop
  endfacet
  facet normal 0 0 1
    outer loop
      vertex -0.665864 14.1099 -35
      vertex -2 5 -35
      vertex -0.60077 13.8187 -35
    endloop
  endfacet
  facet normal -0.999506 -0.0314135 0
    outer loop
      vertex 8.74288 15.2267 -50
      vertex 8.74063 15.2983 -35
      vertex 8.74063 15.2983 -50
    endloop
  endfacet
  facet normal -0.999506 -0.0314149 6.61692e-09
    outer loop
      vertex 8.74063 15.2983 -35
      vertex 8.74288 15.2267 -50
      vertex 8.74569 15.1372 -35
    endloop
  endfacet
  facet normal -0.999507 -0.0314104 3.32417e-08
    outer loop
      vertex 8.74288 15.2267 -50
      vertex 8.75 15 -35
      vertex 8.74569 15.1372 -35
    endloop
  endfacet
  facet normal -0.999507 -0.0314125 1.99715e-09
    outer loop
      vertex 8.75 15 -35
      vertex 8.74288 15.2267 -50
      vertex 8.75 15 -50
    endloop
  endfacet
  facet normal -0.975917 0.218142 0
    outer loop
      vertex 8.60077 13.8187 -50
      vertex 8.66586 14.1099 -35
      vertex 8.66586 14.1099 -50
    endloop
  endfacet
  facet normal -0.975917 0.218142 0
    outer loop
      vertex 8.66586 14.1099 -35
      vertex 8.60077 13.8187 -50
      vertex 8.60077 13.8187 -35
    endloop
  endfacet
  facet normal -0.397149 0.917754 0
    outer loop
      vertex 6.02245 10.7021 -50
      vertex 5.74859 10.5836 -35
      vertex 6.02245 10.7021 -35
    endloop
  endfacet
  facet normal -0.397149 0.917754 0
    outer loop
      vertex 5.74859 10.5836 -35
      vertex 6.02245 10.7021 -50
      vertex 5.74859 10.5836 -50
    endloop
  endfacet
  facet normal -0.0314088 0.999507 -4.20318e-08
    outer loop
      vertex 4.07158 10.2522 -50
      vertex 4 10.25 -35
      vertex 4.16106 10.2551 -35
    endloop
  endfacet
  facet normal -0.0314133 0.999506 -6.35469e-08
    outer loop
      vertex 4 10.25 -35
      vertex 4.07158 10.2522 -50
      vertex 4 10.25 -50
    endloop
  endfacet
  facet normal 0.707107 0.707107 0
    outer loop
      vertex 0.748401 11.5374 -35
      vertex 0.537398 11.7484 -50
      vertex 0.537398 11.7484 -35
    endloop
  endfacet
  facet normal 0.707107 0.707107 0
    outer loop
      vertex 0.537398 11.7484 -50
      vertex 0.748401 11.5374 -35
      vertex 0.748401 11.5374 -50
    endloop
  endfacet
  facet normal 0.917754 0.397149 0
    outer loop
      vertex -0.297928 12.9775 -35
      vertex -0.416438 13.2514 -50
      vertex -0.416438 13.2514 -35
    endloop
  endfacet
  facet normal 0.917754 0.397149 0
    outer loop
      vertex -0.416438 13.2514 -50
      vertex -0.297928 12.9775 -35
      vertex -0.297928 12.9775 -50
    endloop
  endfacet
  facet normal 0.860742 0.509042 0
    outer loop
      vertex -0.0105572 12.4548 -35
      vertex -0.162457 12.7117 -50
      vertex -0.162457 12.7117 -35
    endloop
  endfacet
  facet normal 0.860742 0.509042 0
    outer loop
      vertex -0.162457 12.7117 -50
      vertex -0.0105572 12.4548 -35
      vertex -0.0105572 12.4548 -50
    endloop
  endfacet
  facet normal -0.995562 -0.0941078 0
    outer loop
      vertex 8.74063 15.2983 -50
      vertex 8.71254 15.5953 -35
      vertex 8.71254 15.5953 -50
    endloop
  endfacet
  facet normal -0.995562 -0.0941078 0
    outer loop
      vertex 8.71254 15.5953 -35
      vertex 8.74063 15.2983 -50
      vertex 8.74063 15.2983 -35
    endloop
  endfacet
  facet normal -0.975917 -0.218142 0
    outer loop
      vertex 8.66586 15.8901 -50
      vertex 8.64129 16 -35
      vertex 8.64129 16 -50
    endloop
  endfacet
  facet normal -0.975917 -0.218142 0
    outer loop
      vertex 8.64129 16 -35
      vertex 8.66586 15.8901 -50
      vertex 8.66586 15.8901 -35
    endloop
  endfacet
  facet normal -0.995562 0.0941078 0
    outer loop
      vertex 8.71254 14.4047 -50
      vertex 8.74063 14.7017 -35
      vertex 8.74063 14.7017 -50
    endloop
  endfacet
  facet normal -0.995562 0.0941078 0
    outer loop
      vertex 8.74063 14.7017 -35
      vertex 8.71254 14.4047 -50
      vertex 8.71254 14.4047 -35
    endloop
  endfacet
  facet normal -0.860742 0.509042 0
    outer loop
      vertex 8.01056 12.4548 -50
      vertex 8.16246 12.7117 -35
      vertex 8.16246 12.7117 -50
    endloop
  endfacet
  facet normal -0.860742 0.509042 0
    outer loop
      vertex 8.16246 12.7117 -35
      vertex 8.01056 12.4548 -50
      vertex 8.01056 12.4548 -35
    endloop
  endfacet
  facet normal -0.960293 0.278992 0
    outer loop
      vertex 8.51752 13.5322 -50
      vertex 8.60077 13.8187 -35
      vertex 8.60077 13.8187 -50
    endloop
  endfacet
  facet normal -0.960293 0.278992 0
    outer loop
      vertex 8.60077 13.8187 -35
      vertex 8.51752 13.5322 -50
      vertex 8.51752 13.5322 -35
    endloop
  endfacet
  facet normal -0.750111 0.661312 0
    outer loop
      vertex 7.4626 11.7484 -50
      vertex 7.65994 11.9722 -35
      vertex 7.65994 11.9722 -50
    endloop
  endfacet
  facet normal -0.750111 0.661312 0
    outer loop
      vertex 7.65994 11.9722 -35
      vertex 7.4626 11.7484 -50
      vertex 7.4626 11.7484 -35
    endloop
  endfacet
  facet normal -0.0941078 0.995562 0
    outer loop
      vertex 4.59533 10.2875 -50
      vertex 4.29825 10.2594 -35
      vertex 4.59533 10.2875 -35
    endloop
  endfacet
  facet normal -0.0941078 0.995562 0
    outer loop
      vertex 4.29825 10.2594 -35
      vertex 4.59533 10.2875 -50
      vertex 4.29825 10.2594 -50
    endloop
  endfacet
  facet normal 0.45399 0.891007 -0
    outer loop
      vertex 1.97755 10.7021 -50
      vertex 1.71167 10.8375 -35
      vertex 1.97755 10.7021 -35
    endloop
  endfacet
  facet normal 0.45399 0.891007 0
    outer loop
      vertex 1.71167 10.8375 -35
      vertex 1.97755 10.7021 -50
      vertex 1.71167 10.8375 -50
    endloop
  endfacet
  facet normal 0.999507 -0.0314126 4.40388e-09
    outer loop
      vertex -0.75 15 -35
      vertex -0.742876 15.2267 -50
      vertex -0.745688 15.1372 -35
    endloop
  endfacet
  facet normal 0.999506 -0.0314128 1.99717e-09
    outer loop
      vertex -0.742876 15.2267 -50
      vertex -0.75 15 -35
      vertex -0.75 15 -50
    endloop
  endfacet
  facet normal -0.987688 -0.156435 0
    outer loop
      vertex 8.71254 15.5953 -50
      vertex 8.66586 15.8901 -35
      vertex 8.66586 15.8901 -50
    endloop
  endfacet
  facet normal -0.987688 -0.156435 0
    outer loop
      vertex 8.66586 15.8901 -35
      vertex 8.71254 15.5953 -50
      vertex 8.71254 15.5953 -35
    endloop
  endfacet
  facet normal -0.940881 0.338737 0
    outer loop
      vertex 8.41644 13.2514 -50
      vertex 8.51752 13.5322 -35
      vertex 8.51752 13.5322 -50
    endloop
  endfacet
  facet normal -0.940881 0.338737 0
    outer loop
      vertex 8.51752 13.5322 -35
      vertex 8.41644 13.2514 -50
      vertex 8.41644 13.2514 -35
    endloop
  endfacet
  facet normal -0.999507 0.0314126 -2.012e-08
    outer loop
      vertex 8.74063 14.7017 -50
      vertex 8.74494 14.8389 -35
      vertex 8.74775 14.9284 -50
    endloop
  endfacet
  facet normal -0.999507 0.0314104 0
    outer loop
      vertex 8.74494 14.8389 -35
      vertex 8.74063 14.7017 -50
      vertex 8.74063 14.7017 -35
    endloop
  endfacet
  facet normal -0.999506 0.0314135 -1.99722e-09
    outer loop
      vertex 8.74775 14.9284 -50
      vertex 8.75 15 -35
      vertex 8.75 15 -50
    endloop
  endfacet
  facet normal -0.999506 0.0314147 -7.72653e-09
    outer loop
      vertex 8.75 15 -35
      vertex 8.74775 14.9284 -50
      vertex 8.74494 14.8389 -35
    endloop
  endfacet
  facet normal -0.661312 0.750111 0
    outer loop
      vertex 7.2516 11.5374 -50
      vertex 7.02776 11.3401 -35
      vertex 7.2516 11.5374 -35
    endloop
  endfacet
  facet normal -0.661312 0.750111 0
    outer loop
      vertex 7.02776 11.3401 -35
      vertex 7.2516 11.5374 -50
      vertex 7.02776 11.3401 -50
    endloop
  endfacet
  facet normal -0.509042 0.860742 0
    outer loop
      vertex 6.54518 10.9894 -50
      vertex 6.28833 10.8375 -35
      vertex 6.54518 10.9894 -35
    endloop
  endfacet
  facet normal -0.509042 0.860742 0
    outer loop
      vertex 6.28833 10.8375 -35
      vertex 6.54518 10.9894 -50
      vertex 6.28833 10.8375 -50
    endloop
  endfacet
  facet normal -0.612908 0.790155 0
    outer loop
      vertex 7.02776 11.3401 -50
      vertex 6.79198 11.1572 -35
      vertex 7.02776 11.3401 -35
    endloop
  endfacet
  facet normal -0.612908 0.790155 0
    outer loop
      vertex 6.79198 11.1572 -35
      vertex 7.02776 11.3401 -50
      vertex 6.79198 11.1572 -50
    endloop
  endfacet
  facet normal -0.45399 0.891007 0
    outer loop
      vertex 6.28833 10.8375 -50
      vertex 6.02245 10.7021 -35
      vertex 6.28833 10.8375 -35
    endloop
  endfacet
  facet normal -0.45399 0.891007 0
    outer loop
      vertex 6.02245 10.7021 -35
      vertex 6.28833 10.8375 -50
      vertex 6.02245 10.7021 -50
    endloop
  endfacet
  facet normal -0.278992 0.960293 0
    outer loop
      vertex 5.46783 10.4825 -50
      vertex 5.18128 10.3992 -35
      vertex 5.46783 10.4825 -35
    endloop
  endfacet
  facet normal -0.278992 0.960293 0
    outer loop
      vertex 5.18128 10.3992 -35
      vertex 5.46783 10.4825 -50
      vertex 5.18128 10.3992 -50
    endloop
  endfacet
  facet normal -0.156435 0.987688 0
    outer loop
      vertex 4.89006 10.3341 -50
      vertex 4.59533 10.2875 -35
      vertex 4.89006 10.3341 -35
    endloop
  endfacet
  facet normal -0.156435 0.987688 0
    outer loop
      vertex 4.59533 10.2875 -35
      vertex 4.89006 10.3341 -50
      vertex 4.59533 10.2875 -50
    endloop
  endfacet
  facet normal 0.218142 0.975917 -0
    outer loop
      vertex 3.10994 10.3341 -50
      vertex 2.81872 10.3992 -35
      vertex 3.10994 10.3341 -35
    endloop
  endfacet
  facet normal 0.218142 0.975917 0
    outer loop
      vertex 2.81872 10.3992 -35
      vertex 3.10994 10.3341 -50
      vertex 2.81872 10.3992 -50
    endloop
  endfacet
  facet normal 0.156435 0.987688 -0
    outer loop
      vertex 3.40467 10.2875 -50
      vertex 3.10994 10.3341 -35
      vertex 3.40467 10.2875 -35
    endloop
  endfacet
  facet normal 0.156435 0.987688 0
    outer loop
      vertex 3.10994 10.3341 -35
      vertex 3.40467 10.2875 -50
      vertex 3.10994 10.3341 -50
    endloop
  endfacet
  facet normal 0.509042 0.860742 -0
    outer loop
      vertex 1.71167 10.8375 -50
      vertex 1.45482 10.9894 -35
      vertex 1.71167 10.8375 -35
    endloop
  endfacet
  facet normal 0.509042 0.860742 0
    outer loop
      vertex 1.45482 10.9894 -35
      vertex 1.71167 10.8375 -50
      vertex 1.45482 10.9894 -50
    endloop
  endfacet
  facet normal 0.661312 0.750111 -0
    outer loop
      vertex 0.972236 11.3401 -50
      vertex 0.748401 11.5374 -35
      vertex 0.972236 11.3401 -35
    endloop
  endfacet
  facet normal 0.661312 0.750111 0
    outer loop
      vertex 0.748401 11.5374 -35
      vertex 0.972236 11.3401 -50
      vertex 0.748401 11.5374 -50
    endloop
  endfacet
  facet normal 0.975917 0.218142 0
    outer loop
      vertex -0.60077 13.8187 -35
      vertex -0.665864 14.1099 -50
      vertex -0.665864 14.1099 -35
    endloop
  endfacet
  facet normal 0.975917 0.218142 0
    outer loop
      vertex -0.665864 14.1099 -50
      vertex -0.60077 13.8187 -35
      vertex -0.60077 13.8187 -50
    endloop
  endfacet
  facet normal 0.999506 0.0314127 -1.99716e-09
    outer loop
      vertex -0.75 15 -35
      vertex -0.74775 14.9284 -50
      vertex -0.75 15 -50
    endloop
  endfacet
  facet normal 0.999506 0.0314129 -2.87222e-09
    outer loop
      vertex -0.74775 14.9284 -50
      vertex -0.75 15 -35
      vertex -0.744938 14.8389 -35
    endloop
  endfacet
  facet normal 0.995562 -0.0941078 0
    outer loop
      vertex -0.740626 15.2983 -35
      vertex -0.712544 15.5953 -50
      vertex -0.712544 15.5953 -35
    endloop
  endfacet
  facet normal 0.995562 -0.0941078 0
    outer loop
      vertex -0.712544 15.5953 -50
      vertex -0.740626 15.2983 -35
      vertex -0.740626 15.2983 -50
    endloop
  endfacet
  facet normal -0.987688 0.156435 0
    outer loop
      vertex 8.66586 14.1099 -50
      vertex 8.71254 14.4047 -35
      vertex 8.71254 14.4047 -50
    endloop
  endfacet
  facet normal -0.987688 0.156435 0
    outer loop
      vertex 8.71254 14.4047 -35
      vertex 8.66586 14.1099 -50
      vertex 8.66586 14.1099 -35
    endloop
  endfacet
  facet normal -0.790155 0.612908 0
    outer loop
      vertex 7.65994 11.9722 -50
      vertex 7.84283 12.208 -35
      vertex 7.84283 12.208 -50
    endloop
  endfacet
  facet normal -0.790155 0.612908 0
    outer loop
      vertex 7.84283 12.208 -35
      vertex 7.65994 11.9722 -50
      vertex 7.65994 11.9722 -35
    endloop
  endfacet
  facet normal -0.827082 0.562081 0
    outer loop
      vertex 7.84283 12.208 -50
      vertex 8.01056 12.4548 -35
      vertex 8.01056 12.4548 -50
    endloop
  endfacet
  facet normal -0.827082 0.562081 0
    outer loop
      vertex 8.01056 12.4548 -35
      vertex 7.84283 12.208 -50
      vertex 7.84283 12.208 -35
    endloop
  endfacet
  facet normal -0.707107 0.707107 0
    outer loop
      vertex 7.2516 11.5374 -50
      vertex 7.4626 11.7484 -35
      vertex 7.4626 11.7484 -50
    endloop
  endfacet
  facet normal -0.707107 0.707107 0
    outer loop
      vertex 7.4626 11.7484 -35
      vertex 7.2516 11.5374 -50
      vertex 7.2516 11.5374 -35
    endloop
  endfacet
  facet normal -0.562081 0.827082 0
    outer loop
      vertex 6.79198 11.1572 -50
      vertex 6.54518 10.9894 -35
      vertex 6.79198 11.1572 -35
    endloop
  endfacet
  facet normal -0.562081 0.827082 0
    outer loop
      vertex 6.54518 10.9894 -35
      vertex 6.79198 11.1572 -50
      vertex 6.54518 10.9894 -50
    endloop
  endfacet
  facet normal -0.891007 0.45399 0
    outer loop
      vertex 8.16246 12.7117 -50
      vertex 8.29793 12.9775 -35
      vertex 8.29793 12.9775 -50
    endloop
  endfacet
  facet normal -0.891007 0.45399 0
    outer loop
      vertex 8.29793 12.9775 -35
      vertex 8.16246 12.7117 -50
      vertex 8.16246 12.7117 -35
    endloop
  endfacet
  facet normal -0.917754 0.397149 0
    outer loop
      vertex 8.29793 12.9775 -50
      vertex 8.41644 13.2514 -35
      vertex 8.41644 13.2514 -50
    endloop
  endfacet
  facet normal -0.917754 0.397149 0
    outer loop
      vertex 8.41644 13.2514 -35
      vertex 8.29793 12.9775 -50
      vertex 8.29793 12.9775 -35
    endloop
  endfacet
  facet normal -0.338737 0.940881 0
    outer loop
      vertex 5.74859 10.5836 -50
      vertex 5.46783 10.4825 -35
      vertex 5.74859 10.5836 -35
    endloop
  endfacet
  facet normal -0.338737 0.940881 0
    outer loop
      vertex 5.46783 10.4825 -35
      vertex 5.74859 10.5836 -50
      vertex 5.46783 10.4825 -50
    endloop
  endfacet
  facet normal -0.218142 0.975917 0
    outer loop
      vertex 5.18128 10.3992 -50
      vertex 4.89006 10.3341 -35
      vertex 5.18128 10.3992 -35
    endloop
  endfacet
  facet normal -0.218142 0.975917 0
    outer loop
      vertex 4.89006 10.3341 -35
      vertex 5.18128 10.3992 -50
      vertex 4.89006 10.3341 -50
    endloop
  endfacet
  facet normal -0.0314104 0.999507 0
    outer loop
      vertex 4.29825 10.2594 -50
      vertex 4.16106 10.2551 -35
      vertex 4.29825 10.2594 -35
    endloop
  endfacet
  facet normal -0.0314126 0.999507 -1.95156e-08
    outer loop
      vertex 4.16106 10.2551 -35
      vertex 4.29825 10.2594 -50
      vertex 4.07158 10.2522 -50
    endloop
  endfacet
  facet normal 0.0314089 0.999507 -6.35469e-08
    outer loop
      vertex 4 10.25 -50
      vertex 3.83894 10.2551 -35
      vertex 4 10.25 -35
    endloop
  endfacet
  facet normal 0.0314134 0.999506 -1.55123e-08
    outer loop
      vertex 3.83894 10.2551 -35
      vertex 4 10.25 -50
      vertex 3.92842 10.2522 -50
    endloop
  endfacet
  facet normal 0.397149 0.917754 -0
    outer loop
      vertex 2.25141 10.5836 -50
      vertex 1.97755 10.7021 -35
      vertex 2.25141 10.5836 -35
    endloop
  endfacet
  facet normal 0.397149 0.917754 0
    outer loop
      vertex 1.97755 10.7021 -35
      vertex 2.25141 10.5836 -50
      vertex 1.97755 10.7021 -50
    endloop
  endfacet
  facet normal 0.338737 0.940881 -0
    outer loop
      vertex 2.53217 10.4825 -50
      vertex 2.25141 10.5836 -35
      vertex 2.53217 10.4825 -35
    endloop
  endfacet
  facet normal 0.338737 0.940881 0
    outer loop
      vertex 2.25141 10.5836 -35
      vertex 2.53217 10.4825 -50
      vertex 2.25141 10.5836 -50
    endloop
  endfacet
  facet normal 0.562081 0.827082 -0
    outer loop
      vertex 1.45482 10.9894 -50
      vertex 1.20802 11.1572 -35
      vertex 1.45482 10.9894 -35
    endloop
  endfacet
  facet normal 0.562081 0.827082 0
    outer loop
      vertex 1.20802 11.1572 -35
      vertex 1.45482 10.9894 -50
      vertex 1.20802 11.1572 -50
    endloop
  endfacet
  facet normal 0.612908 0.790155 -0
    outer loop
      vertex 1.20802 11.1572 -50
      vertex 0.972236 11.3401 -35
      vertex 1.20802 11.1572 -35
    endloop
  endfacet
  facet normal 0.612908 0.790155 0
    outer loop
      vertex 0.972236 11.3401 -35
      vertex 1.20802 11.1572 -50
      vertex 0.972236 11.3401 -50
    endloop
  endfacet
  facet normal 0.891007 0.45399 0
    outer loop
      vertex -0.162457 12.7117 -35
      vertex -0.297928 12.9775 -50
      vertex -0.297928 12.9775 -35
    endloop
  endfacet
  facet normal 0.891007 0.45399 0
    outer loop
      vertex -0.297928 12.9775 -50
      vertex -0.162457 12.7117 -35
      vertex -0.162457 12.7117 -50
    endloop
  endfacet
  facet normal 0.790155 0.612908 0
    outer loop
      vertex 0.340061 11.9722 -35
      vertex 0.157168 12.208 -50
      vertex 0.157168 12.208 -35
    endloop
  endfacet
  facet normal 0.790155 0.612908 0
    outer loop
      vertex 0.157168 12.208 -50
      vertex 0.340061 11.9722 -35
      vertex 0.340061 11.9722 -50
    endloop
  endfacet
  facet normal 0.750111 0.661312 0
    outer loop
      vertex 0.537398 11.7484 -35
      vertex 0.340061 11.9722 -50
      vertex 0.340061 11.9722 -35
    endloop
  endfacet
  facet normal 0.750111 0.661312 0
    outer loop
      vertex 0.340061 11.9722 -50
      vertex 0.537398 11.7484 -35
      vertex 0.537398 11.7484 -50
    endloop
  endfacet
  facet normal 0.940881 0.338737 0
    outer loop
      vertex -0.416438 13.2514 -35
      vertex -0.517518 13.5322 -50
      vertex -0.517518 13.5322 -35
    endloop
  endfacet
  facet normal 0.940881 0.338737 0
    outer loop
      vertex -0.517518 13.5322 -50
      vertex -0.416438 13.2514 -35
      vertex -0.416438 13.2514 -50
    endloop
  endfacet
  facet normal 0.960293 0.278992 0
    outer loop
      vertex -0.517518 13.5322 -35
      vertex -0.60077 13.8187 -50
      vertex -0.60077 13.8187 -35
    endloop
  endfacet
  facet normal 0.960293 0.278992 0
    outer loop
      vertex -0.60077 13.8187 -50
      vertex -0.517518 13.5322 -35
      vertex -0.517518 13.5322 -50
    endloop
  endfacet
  facet normal 0.999507 0.0314126 -4.40388e-09
    outer loop
      vertex -0.740626 14.7017 -35
      vertex -0.74775 14.9284 -50
      vertex -0.744938 14.8389 -35
    endloop
  endfacet
  facet normal 0.999506 0.0314129 0
    outer loop
      vertex -0.74775 14.9284 -50
      vertex -0.740626 14.7017 -35
      vertex -0.740626 14.7017 -50
    endloop
  endfacet
  facet normal 0.995562 0.0941078 0
    outer loop
      vertex -0.712544 14.4047 -35
      vertex -0.740626 14.7017 -50
      vertex -0.740626 14.7017 -35
    endloop
  endfacet
  facet normal 0.995562 0.0941078 0
    outer loop
      vertex -0.740626 14.7017 -50
      vertex -0.712544 14.4047 -35
      vertex -0.712544 14.4047 -50
    endloop
  endfacet
  facet normal 0.987688 0.156435 0
    outer loop
      vertex -0.665864 14.1099 -35
      vertex -0.712544 14.4047 -50
      vertex -0.712544 14.4047 -35
    endloop
  endfacet
  facet normal 0.987688 0.156435 0
    outer loop
      vertex -0.712544 14.4047 -50
      vertex -0.665864 14.1099 -35
      vertex -0.665864 14.1099 -50
    endloop
  endfacet
  facet normal 0.975917 -0.218142 0
    outer loop
      vertex -0.665864 15.8901 -35
      vertex -0.64129 16 -50
      vertex -0.64129 16 -35
    endloop
  endfacet
  facet normal 0.975917 -0.218142 0
    outer loop
      vertex -0.64129 16 -50
      vertex -0.665864 15.8901 -35
      vertex -0.665864 15.8901 -50
    endloop
  endfacet
  facet normal 0.987688 -0.156435 0
    outer loop
      vertex -0.712544 15.5953 -35
      vertex -0.665864 15.8901 -50
      vertex -0.665864 15.8901 -35
    endloop
  endfacet
  facet normal 0.987688 -0.156435 0
    outer loop
      vertex -0.665864 15.8901 -50
      vertex -0.712544 15.5953 -35
      vertex -0.712544 15.5953 -50
    endloop
  endfacet
  facet normal 0.0941078 0.995562 -0
    outer loop
      vertex 3.70174 10.2594 -50
      vertex 3.40467 10.2875 -35
      vertex 3.70174 10.2594 -35
    endloop
  endfacet
  facet normal 0.0941078 0.995562 0
    outer loop
      vertex 3.40467 10.2875 -35
      vertex 3.70174 10.2594 -50
      vertex 3.40467 10.2875 -50
    endloop
  endfacet
  facet normal 0.827083 0.562079 0
    outer loop
      vertex 0.157168 12.208 -35
      vertex -0.0105572 12.4548 -50
      vertex -0.0105572 12.4548 -35
    endloop
  endfacet
  facet normal 0.827083 0.562079 0
    outer loop
      vertex -0.0105572 12.4548 -50
      vertex 0.157168 12.208 -35
      vertex 0.157168 12.208 -50
    endloop
  endfacet
  facet normal 0.999506 -0.0314127 0
    outer loop
      vertex -0.740626 15.2983 -35
      vertex -0.742876 15.2267 -50
      vertex -0.740626 15.2983 -50
    endloop
  endfacet
  facet normal 0.999506 -0.0314131 1.76267e-09
    outer loop
      vertex -0.742876 15.2267 -50
      vertex -0.740626 15.2983 -35
      vertex -0.745688 15.1372 -35
    endloop
  endfacet
  facet normal 0.0314105 0.999507 -3.29161e-08
    outer loop
      vertex 3.92842 10.2522 -50
      vertex 3.70174 10.2594 -35
      vertex 3.83894 10.2551 -35
    endloop
  endfacet
  facet normal 0.0314127 0.999507 0
    outer loop
      vertex 3.70174 10.2594 -35
      vertex 3.92842 10.2522 -50
      vertex 3.70174 10.2594 -50
    endloop
  endfacet
  facet normal 0.278992 0.960293 -0
    outer loop
      vertex 2.81872 10.3992 -50
      vertex 2.53217 10.4825 -35
      vertex 2.81872 10.3992 -35
    endloop
  endfacet
  facet normal 0.278992 0.960293 0
    outer loop
      vertex 2.53217 10.4825 -35
      vertex 2.81872 10.3992 -50
      vertex 2.53217 10.4825 -50
    endloop
  endfacet
  facet normal 1 -0 0
    outer loop
      vertex -0.75 16 -35
      vertex -0.75 20 -50
      vertex -0.75 20 -35
    endloop
  endfacet
  facet normal 1 0 0
    outer loop
      vertex -0.75 20 -50
      vertex -0.75 16 -35
      vertex -0.75 16 -50
    endloop
  endfacet
  facet normal -1 0 0
    outer loop
      vertex 8.75 16 -50
      vertex 8.75 20 -35
      vertex 8.75 20 -50
    endloop
  endfacet
  facet normal -1 -0 0
    outer loop
      vertex 8.75 20 -35
      vertex 8.75 16 -50
      vertex 8.75 16 -35
    endloop
  endfacet
  facet normal 0 1 -0
    outer loop
      vertex -0.64129 16 -50
      vertex -0.75 16 -35
      vertex -0.64129 16 -35
    endloop
  endfacet
  facet normal 0 1 0
    outer loop
      vertex -0.75 16 -35
      vertex -0.64129 16 -50
      vertex -0.75 16 -50
    endloop
  endfacet
  facet normal 0 1 -0
    outer loop
      vertex 8.75 16 -50
      vertex 8.64129 16 -35
      vertex 8.75 16 -35
    endloop
  endfacet
  facet normal 0 1 0
    outer loop
      vertex 8.64129 16 -35
      vertex 8.75 16 -50
      vertex 8.64129 16 -50
    endloop
  endfacet
endsolid OpenSCAD_Model
